<svg width="814" height="1000" viewBox="0 0 814 1000" fill="none" xmlns="http://www.w3.org/2000/svg">
<path d="M589.8 261.7C615.322 261.7 698.592 264.009 759.501 336.428C758.535 337.152 757.54 337.907 756.52 338.695C745.274 347.383 730.842 359.971 716.575 376.785C687.938 410.535 659.9 461.462 659.9 531.4C659.9 612.188 695.603 667.344 731.665 702.069C753.175 722.782 774.954 736.395 789.75 744.235C787.213 751.462 783.69 760.837 779.097 771.729C768.376 797.156 751.963 830.556 728.926 864.158C707.361 895.194 686.68 924.111 663.542 945.446C640.753 966.46 617.194 978.6 589.9 978.6C560.476 978.6 542.517 970.391 519.819 960.512C496.262 950.258 469.255 939.1 425.9 939.1C383.552 939.1 354.619 950.59 329.803 961.077C305.112 971.511 286.419 979.9 260 979.9C235.735 979.9 213.962 969.008 191.219 947.969C168.119 926.6 145.94 896.576 120.809 861.322C65.2055 782.21 20 658.518 20 541.8C20.0001 357.295 138.563 264.3 250.8 264.3C279.703 264.3 306.897 273.789 333.971 284.579C347.018 289.779 360.755 295.57 373.46 299.865C386.231 304.183 399.887 307.7 413.5 307.7C426.826 307.7 440.671 303.898 453.656 299.42C466.606 294.954 481.353 288.815 495.477 283.354C524.822 272.005 556.111 261.7 589.8 261.7ZM587.186 22.1738C586.598 67.2965 566.916 113.159 538.807 146.511L538.669 146.675L538.535 146.841C523.938 164.932 503.629 181.102 481.661 192.702C461.326 203.44 440.727 209.658 423.103 210.58C423.351 165.146 447.026 118.785 473.217 89.0098L473.282 88.9355L473.347 88.8604C502.019 55.6071 547.01 29.7474 587.186 22.1738Z" stroke="white" stroke-width="40"/>
</svg>
